<svg width="1228" height="172" viewBox="0 0 1228 172" fill="none" xmlns="http://www.w3.org/2000/svg">
<path d="M136.903 46.2C142.503 46.2 147.653 46.9 152.353 48.3C157.153 49.6 162.003 51.7 166.903 54.6L170.353 51.75C172.753 49.85 174.703 48.55 176.203 47.85C177.803 47.15 179.603 46.8 181.603 46.8C184.003 46.8 185.903 47.35 187.303 48.45C188.703 49.45 189.403 50.95 189.403 52.95C189.403 53.75 189.253 54.6 188.953 55.5L182.653 76.2C181.953 78.6 181.053 80.3 179.953 81.3C178.953 82.3 177.403 82.8 175.303 82.8C173.103 82.8 171.153 82.15 169.453 80.85C167.853 79.45 165.303 76.65 161.803 72.45C158.303 68.45 155.103 65.65 152.203 64.05C149.403 62.35 146.503 61.5 143.503 61.5C141.303 61.5 139.453 62.25 137.953 63.75C136.453 65.15 135.703 66.9 135.703 69C135.703 71.4 136.903 73.65 139.303 75.75C141.703 77.75 145.453 80.3 150.553 83.4C155.753 86.5 160.053 89.3 163.453 91.8C166.853 94.3 169.753 97.4 172.153 101.1C174.553 104.8 175.753 109.05 175.753 113.85C175.753 116.95 175.253 120.05 174.253 123.15C171.853 131.15 167.203 137.25 160.303 141.45C153.403 145.55 145.353 147.6 136.153 147.6C129.253 147.6 123.453 146.8 118.753 145.2C114.053 143.6 109.253 140.9 104.353 137.1L98.9527 141.6C96.4527 143.7 94.4027 145.15 92.8027 145.95C91.2027 146.65 89.4027 147 87.4027 147C85.1027 147 83.2527 146.45 81.8527 145.35C80.5527 144.25 79.9027 142.75 79.9027 140.85C79.9027 139.85 80.1027 138.8 80.5027 137.7L87.8527 115.35C88.6527 112.75 89.7527 110.9 91.1527 109.8C92.5527 108.7 94.3527 108.15 96.5527 108.15C98.8527 108.15 100.903 108.95 102.703 110.55C104.603 112.15 107.053 115.05 110.053 119.25C113.253 123.85 116.203 127.05 118.903 128.85C121.703 130.65 125.003 131.55 128.803 131.55C131.503 131.55 133.553 131.15 134.953 130.35C136.453 129.45 137.503 128.05 138.103 126.15C138.303 125.65 138.403 124.9 138.403 123.9C138.403 121.5 137.253 119.3 134.953 117.3C132.653 115.3 129.103 112.9 124.303 110.1C119.203 107 115.053 104.25 111.853 101.85C108.653 99.35 105.853 96.25 103.453 92.55C101.153 88.85 100.003 84.5 100.003 79.5C100.003 76 100.553 72.55 101.653 69.15C103.753 62.25 108.053 56.7 114.553 52.5C121.053 48.3 128.503 46.2 136.903 46.2ZM361.189 129.3C360.789 130.6 360.589 131.9 360.589 133.2C360.589 134.3 360.739 135.25 361.039 136.05C361.339 136.75 361.639 137.35 361.939 137.85C362.339 138.25 362.589 138.55 362.689 138.75C363.689 139.75 364.189 140.75 364.189 141.75C364.189 141.95 364.089 142.45 363.889 143.25C363.489 144.65 362.589 145.65 361.189 146.25C359.889 146.75 357.839 147 355.039 147H319.489C317.389 147 315.739 146.65 314.539 145.95C313.439 145.25 312.889 144.3 312.889 143.1C312.889 142.5 313.039 141.85 313.339 141.15C313.639 140.35 314.039 139.75 314.539 139.35C315.139 138.85 315.939 138.3 316.939 137.7C318.539 136.8 319.839 135.8 320.839 134.7C321.839 133.6 322.689 131.8 323.389 129.3L327.289 116.4H303.889L299.839 124.95C298.139 128.65 297.289 131.55 297.289 133.65C297.289 134.85 297.489 135.85 297.889 136.65C298.289 137.35 298.889 138.1 299.689 138.9C300.389 139.7 300.839 140.4 301.039 141C301.339 141.5 301.389 142.2 301.189 143.1C300.789 144.6 299.939 145.65 298.639 146.25C297.439 146.75 295.489 147 292.789 147H270.439C268.139 147 266.389 146.6 265.189 145.8C263.989 144.9 263.389 143.75 263.389 142.35C263.389 140.75 263.989 139.5 265.189 138.6C266.289 137.6 267.989 136.55 270.289 135.45C273.289 133.95 275.689 132.5 277.489 131.1C279.289 129.6 280.839 127.55 282.139 124.95L308.839 69.6C312.939 61 317.739 54.8 323.239 51C328.839 47.1 336.189 45.15 345.289 45.15C355.489 45.15 363.389 47.25 368.989 51.45C374.589 55.55 377.389 61.3 377.389 68.7C377.389 71.8 376.889 75 375.889 78.3L361.189 129.3ZM331.789 101.4L339.739 75C340.139 73.8 340.339 72.55 340.339 71.25C340.339 69.35 339.789 67.95 338.689 67.05C337.689 66.05 336.239 65.55 334.339 65.55C331.939 65.55 329.889 66.25 328.189 67.65C326.489 69.05 324.789 71.55 323.089 75.15L310.789 101.4H331.789Z" fill="#F67E32"/>
<path d="M290.121 47.1C295.621 47.1 298.371 49.35 298.371 53.85C298.371 55.25 298.071 57 297.471 59.1L293.871 71.25C292.771 74.95 291.421 77.55 289.821 79.05C288.221 80.55 285.921 81.3 282.921 81.3C280.421 81.3 278.471 80.65 277.071 79.35C275.771 78.05 274.521 76 273.321 73.2L270.771 67.05C269.971 65.15 269.121 63.85 268.221 63.15C267.321 62.45 265.921 62.1 264.021 62.1H260.571L241.521 129.15C241.221 130.45 241.071 131.6 241.071 132.6C241.071 133.8 241.221 134.8 241.521 135.6C241.921 136.4 242.471 137.25 243.171 138.15C244.071 139.55 244.521 140.7 244.521 141.6C244.521 141.8 244.421 142.3 244.221 143.1C243.721 144.4 242.721 145.35 241.221 145.95C239.821 146.55 237.771 146.85 235.071 146.85H199.821C197.721 146.85 196.071 146.5 194.871 145.8C193.771 145.1 193.221 144.1 193.221 142.8C193.221 142.2 193.371 141.6 193.671 141C194.071 140.1 194.521 139.45 195.021 139.05C195.621 138.55 196.471 137.95 197.571 137.25C199.071 136.35 200.321 135.35 201.321 134.25C202.321 133.15 203.171 131.45 203.871 129.15L222.771 62.1H219.321C217.121 62.1 215.321 62.45 213.921 63.15C212.521 63.85 211.021 65.15 209.421 67.05L204.471 73.2C202.171 75.9 199.921 77.95 197.721 79.35C195.621 80.65 193.321 81.3 190.821 81.3C188.521 81.3 186.721 80.7 185.421 79.5C184.121 78.3 183.471 76.65 183.471 74.55C183.471 73.55 183.621 72.45 183.921 71.25L187.821 57.6C188.621 54.8 189.521 52.7 190.521 51.3C191.521 49.8 192.921 48.75 194.721 48.15C196.621 47.45 199.271 47.1 202.671 47.1H290.121Z" fill="#FD7BEC"/>
<path d="M474.625 77.55C473.025 83.35 470.025 87.9 465.625 91.2C461.225 94.4 455.675 96.4 448.975 97.2C453.775 97.6 457.375 99 459.775 101.4C462.175 103.8 463.375 106.95 463.375 110.85C463.375 112.35 463.125 114.2 462.625 116.4L460.975 123.75C460.775 124.75 460.675 125.45 460.675 125.85C460.675 127.15 460.975 128.15 461.575 128.85C462.175 129.45 463.025 129.75 464.125 129.75C466.225 129.75 467.725 130.05 468.625 130.65C469.625 131.25 469.975 132.35 469.675 133.95C469.275 136.25 468.075 138.5 466.075 140.7C464.075 142.9 461.225 144.75 457.525 146.25C453.925 147.65 449.525 148.35 444.325 148.35C437.725 148.35 432.475 146.9 428.575 144C424.675 141 422.725 136.75 422.725 131.25C422.725 129.15 423.025 126.9 423.625 124.5L426.025 114.9C426.425 113.6 426.625 112.25 426.625 110.85C426.625 108.55 425.825 106.9 424.225 105.9C422.725 104.9 420.275 104.4 416.875 104.4H411.175L404.275 129.3C404.075 129.9 403.975 130.65 403.975 131.55C403.975 132.95 404.325 134.15 405.025 135.15C405.725 136.15 406.675 137.2 407.875 138.3C408.775 139 409.475 139.7 409.975 140.4C410.475 141 410.725 141.65 410.725 142.35C410.725 144.05 409.925 145.25 408.325 145.95C406.725 146.65 404.375 147 401.275 147H363.625C361.025 147 359.075 146.55 357.775 145.65C356.475 144.65 356.025 143.3 356.425 141.6C356.625 140.7 357.025 140 357.625 139.5C358.125 138.9 358.925 138.25 360.025 137.55C361.725 136.55 363.075 135.5 364.075 134.4C365.075 133.3 365.875 131.6 366.475 129.3L384.775 64.65C385.175 63.35 385.375 62.1 385.375 60.9C385.375 59.8 385.175 58.9 384.775 58.2C384.475 57.4 384.025 56.5 383.425 55.5C382.525 54.2 382.075 53.15 382.075 52.35C382.075 52.05 382.175 51.5 382.375 50.7C382.775 49.4 383.625 48.5 384.925 48C386.325 47.4 388.425 47.1 391.225 47.1H441.475C448.375 47.1 454.375 48.15 459.475 50.25C464.675 52.35 468.625 55.25 471.325 58.95C474.125 62.55 475.525 66.65 475.525 71.25C475.525 73.35 475.225 75.45 474.625 77.55ZM436.225 76.05C436.725 73.75 436.975 72 436.975 70.8C436.975 65.5 434.075 62.85 428.275 62.85H421.975L415.375 89.4H421.675C425.575 89.4 428.625 88.45 430.825 86.55C433.125 84.65 434.925 81.15 436.225 76.05Z" fill="#8E3AE6"/>
<path d="M579.744 47.1C585.244 47.1 587.994 49.35 587.994 53.85C587.994 55.25 587.694 57 587.094 59.1L583.494 71.25C582.394 74.95 581.044 77.55 579.444 79.05C577.844 80.55 575.544 81.3 572.544 81.3C570.044 81.3 568.094 80.65 566.694 79.35C565.394 78.05 564.144 76 562.944 73.2L560.394 67.05C559.594 65.15 558.744 63.85 557.844 63.15C556.944 62.45 555.544 62.1 553.644 62.1H550.194L531.144 129.15C530.844 130.45 530.694 131.6 530.694 132.6C530.694 133.8 530.844 134.8 531.144 135.6C531.544 136.4 532.094 137.25 532.794 138.15C533.694 139.55 534.144 140.7 534.144 141.6C534.144 141.8 534.044 142.3 533.844 143.1C533.344 144.4 532.344 145.35 530.844 145.95C529.444 146.55 527.394 146.85 524.694 146.85H489.444C487.344 146.85 485.694 146.5 484.494 145.8C483.394 145.1 482.844 144.1 482.844 142.8C482.844 142.2 482.994 141.6 483.294 141C483.694 140.1 484.144 139.45 484.644 139.05C485.244 138.55 486.094 137.95 487.194 137.25C488.694 136.35 489.944 135.35 490.944 134.25C491.944 133.15 492.794 131.45 493.494 129.15L512.394 62.1H508.944C506.744 62.1 504.944 62.45 503.544 63.15C502.144 63.85 500.644 65.15 499.044 67.05L494.094 73.2C491.794 75.9 489.544 77.95 487.344 79.35C485.244 80.65 482.944 81.3 480.444 81.3C478.144 81.3 476.344 80.7 475.044 79.5C473.744 78.3 473.094 76.65 473.094 74.55C473.094 73.55 473.244 72.45 473.544 71.25L477.444 57.6C478.244 54.8 479.144 52.7 480.144 51.3C481.144 49.8 482.544 48.75 484.344 48.15C486.244 47.45 488.894 47.1 492.294 47.1H579.744Z" fill="#D47BEE"/>
<path d="M657.112 47.1C660.812 47.1 663.662 47.9 665.662 49.5C667.762 51.1 668.812 53.3 668.812 56.1C668.812 57.5 668.612 58.85 668.212 60.15L664.312 74.1C663.612 76.8 662.562 78.7 661.162 79.8C659.862 80.8 657.962 81.3 655.462 81.3C653.062 81.3 651.162 80.8 649.762 79.8C648.462 78.7 647.462 76.95 646.762 74.55L644.362 66C643.862 64.2 643.262 63 642.562 62.4C641.862 61.8 640.512 61.5 638.512 61.5H622.762L615.262 88.2H621.862C622.562 88.2 623.512 87.7 624.712 86.7L629.812 82.2C631.312 80.9 632.612 79.95 633.712 79.35C634.812 78.75 636.162 78.45 637.762 78.45C639.562 78.45 641.012 78.95 642.112 79.95C643.312 80.85 643.912 82.05 643.912 83.55C643.912 83.95 643.812 84.55 643.612 85.35L637.462 106.2C636.862 108.4 635.812 110.05 634.312 111.15C632.912 112.15 631.362 112.65 629.662 112.65C626.862 112.65 624.762 111.2 623.362 108.3L620.812 103.05C620.112 101.55 619.012 100.8 617.512 100.8H611.662L602.812 132.6H616.012C617.912 132.6 619.562 132.25 620.962 131.55C622.462 130.75 624.062 129.4 625.762 127.5L634.762 117.6C636.362 115.9 637.862 114.7 639.262 114C640.762 113.2 642.562 112.8 644.662 112.8C646.862 112.8 648.662 113.3 650.062 114.3C651.462 115.3 652.162 116.8 652.162 118.8C652.162 119.6 652.012 120.55 651.712 121.65L647.362 136.8C646.262 140.6 644.662 143.25 642.562 144.75C640.462 146.25 637.412 147 633.412 147H561.862C559.762 147 558.162 146.65 557.062 145.95C555.862 145.25 555.262 144.3 555.262 143.1C555.262 142.5 555.412 141.85 555.712 141.15C556.112 140.05 556.762 139.2 557.662 138.6C558.562 138 559.112 137.65 559.312 137.55C560.912 136.55 562.212 135.55 563.212 134.55C564.212 133.45 565.062 131.7 565.762 129.3L584.212 64.65C584.612 63.35 584.812 62.15 584.812 61.05C584.812 59.85 584.612 58.85 584.212 58.05C583.912 57.25 583.412 56.4 582.712 55.5C581.812 54.2 581.362 53.15 581.362 52.35C581.362 52.05 581.462 51.5 581.662 50.7C582.062 49.4 582.962 48.5 584.362 48C585.762 47.4 587.812 47.1 590.512 47.1H657.112Z" fill="#FFA300"/>
<path d="M760.147 77.55C758.547 83.35 755.547 87.9 751.147 91.2C746.747 94.4 741.197 96.4 734.497 97.2C739.297 97.6 742.897 99 745.297 101.4C747.697 103.8 748.897 106.95 748.897 110.85C748.897 112.35 748.647 114.2 748.147 116.4L746.497 123.75C746.297 124.75 746.197 125.45 746.197 125.85C746.197 127.15 746.497 128.15 747.097 128.85C747.697 129.45 748.547 129.75 749.647 129.75C751.747 129.75 753.247 130.05 754.147 130.65C755.147 131.25 755.497 132.35 755.197 133.95C754.797 136.25 753.597 138.5 751.597 140.7C749.597 142.9 746.747 144.75 743.047 146.25C739.447 147.65 735.047 148.35 729.847 148.35C723.247 148.35 717.997 146.9 714.097 144C710.197 141 708.247 136.75 708.247 131.25C708.247 129.15 708.547 126.9 709.147 124.5L711.547 114.9C711.947 113.6 712.147 112.25 712.147 110.85C712.147 108.55 711.347 106.9 709.747 105.9C708.247 104.9 705.797 104.4 702.397 104.4H696.697L689.797 129.3C689.597 129.9 689.497 130.65 689.497 131.55C689.497 132.95 689.847 134.15 690.547 135.15C691.247 136.15 692.197 137.2 693.397 138.3C694.297 139 694.997 139.7 695.497 140.4C695.997 141 696.247 141.65 696.247 142.35C696.247 144.05 695.447 145.25 693.847 145.95C692.247 146.65 689.897 147 686.797 147H649.147C646.547 147 644.597 146.55 643.297 145.65C641.997 144.65 641.547 143.3 641.947 141.6C642.147 140.7 642.547 140 643.147 139.5C643.647 138.9 644.447 138.25 645.547 137.55C647.247 136.55 648.597 135.5 649.597 134.4C650.597 133.3 651.397 131.6 651.997 129.3L670.297 64.65C670.697 63.35 670.897 62.1 670.897 60.9C670.897 59.8 670.697 58.9 670.297 58.2C669.997 57.4 669.547 56.5 668.947 55.5C668.047 54.2 667.597 53.15 667.597 52.35C667.597 52.05 667.697 51.5 667.897 50.7C668.297 49.4 669.147 48.5 670.447 48C671.847 47.4 673.947 47.1 676.747 47.1H726.997C733.897 47.1 739.897 48.15 744.997 50.25C750.197 52.35 754.147 55.25 756.847 58.95C759.647 62.55 761.047 66.65 761.047 71.25C761.047 73.35 760.747 75.45 760.147 77.55ZM721.747 76.05C722.247 73.75 722.497 72 722.497 70.8C722.497 65.5 719.597 62.85 713.797 62.85H707.497L700.897 89.4H707.197C711.097 89.4 714.147 88.45 716.347 86.55C718.647 84.65 720.447 81.15 721.747 76.05Z" fill="#DBFF01"/>
<path d="M841.745 47.1C852.345 47.1 860.495 49.4 866.195 54C871.995 58.6 874.895 64.7 874.895 72.3C874.895 75.3 874.445 78.45 873.545 81.75C870.745 91.75 865.195 99.15 856.895 103.95C848.695 108.75 838.295 111.15 825.695 111.15H810.245L805.145 129.3C804.945 129.9 804.845 130.7 804.845 131.7C804.845 133.1 805.145 134.25 805.745 135.15C806.445 136.05 807.445 137.1 808.745 138.3C809.845 139.3 810.595 140.05 810.995 140.55C811.395 141.05 811.595 141.65 811.595 142.35C811.595 144.05 810.795 145.25 809.195 145.95C807.595 146.65 805.245 147 802.145 147H764.495C761.895 147 759.945 146.55 758.645 145.65C757.345 144.65 756.895 143.3 757.295 141.6C757.495 140.7 757.895 140 758.495 139.5C758.995 138.9 759.795 138.25 760.895 137.55C762.595 136.55 763.945 135.5 764.945 134.4C765.945 133.3 766.745 131.6 767.345 129.3L785.645 64.65C786.045 63.35 786.245 62.1 786.245 60.9C786.245 59.8 786.045 58.9 785.645 58.2C785.345 57.4 784.895 56.5 784.295 55.5C783.395 54.2 782.945 53.15 782.945 52.35C782.945 52.05 783.045 51.5 783.245 50.7C783.645 49.4 784.495 48.5 785.795 48C787.195 47.4 789.295 47.1 792.095 47.1H841.745ZM837.845 79.05C838.945 75.35 839.495 72.1 839.495 69.3C839.495 63.5 836.795 60.6 831.395 60.6H824.645L813.995 97.65H820.595C824.795 97.65 828.195 96.35 830.795 93.75C833.495 91.05 835.845 86.15 837.845 79.05Z" fill="#B902BC"/>
<path d="M940.687 129.3C940.287 130.6 940.087 131.9 940.087 133.2C940.087 134.3 940.237 135.25 940.537 136.05C940.837 136.75 941.137 137.35 941.437 137.85C941.837 138.25 942.087 138.55 942.187 138.75C943.187 139.75 943.687 140.75 943.687 141.75C943.687 141.95 943.587 142.45 943.387 143.25C942.987 144.65 942.087 145.65 940.687 146.25C939.387 146.75 937.337 147 934.537 147H898.987C896.887 147 895.237 146.65 894.037 145.95C892.937 145.25 892.387 144.3 892.387 143.1C892.387 142.5 892.537 141.85 892.837 141.15C893.137 140.35 893.537 139.75 894.037 139.35C894.637 138.85 895.437 138.3 896.437 137.7C898.037 136.8 899.337 135.8 900.337 134.7C901.337 133.6 902.187 131.8 902.887 129.3L906.787 116.4H883.387L879.337 124.95C877.637 128.65 876.787 131.55 876.787 133.65C876.787 134.85 876.987 135.85 877.387 136.65C877.787 137.35 878.387 138.1 879.187 138.9C879.887 139.7 880.337 140.4 880.537 141C880.837 141.5 880.887 142.2 880.687 143.1C880.287 144.6 879.437 145.65 878.137 146.25C876.937 146.75 874.987 147 872.287 147H849.937C847.637 147 845.887 146.6 844.687 145.8C843.487 144.9 842.887 143.75 842.887 142.35C842.887 140.75 843.487 139.5 844.687 138.6C845.787 137.6 847.487 136.55 849.787 135.45C852.787 133.95 855.187 132.5 856.987 131.1C858.787 129.6 860.337 127.55 861.637 124.95L888.337 69.6C892.437 61 897.237 54.8 902.737 51C908.337 47.1 915.687 45.15 924.787 45.15C934.987 45.15 942.887 47.25 948.487 51.45C954.087 55.55 956.887 61.3 956.887 68.7C956.887 71.8 956.387 75 955.387 78.3L940.687 129.3ZM911.287 101.4L919.237 75C919.637 73.8 919.837 72.55 919.837 71.25C919.837 69.35 919.287 67.95 918.187 67.05C917.187 66.05 915.737 65.55 913.837 65.55C911.437 65.55 909.387 66.25 907.687 67.65C905.987 69.05 904.287 71.55 902.587 75.15L890.287 101.4H911.287Z" fill="#FD00DC"/>
<path d="M991.723 147.9C983.323 147.9 975.773 146.35 969.073 143.25C962.373 140.15 957.023 135.6 953.023 129.6C949.123 123.5 947.173 116.15 947.173 107.55C947.173 101.55 948.223 95.05 950.323 88.05C954.923 73.05 961.873 62.25 971.173 55.65C980.473 48.95 990.423 45.6 1001.02 45.6C1006.72 45.6 1011.77 46.45 1016.17 48.15C1020.57 49.85 1024.62 52.3 1028.32 55.5L1032.37 52.35C1035.07 50.25 1037.32 48.8 1039.12 48C1041.02 47.2 1043.12 46.8 1045.42 46.8C1047.92 46.8 1049.92 47.35 1051.42 48.45C1052.92 49.55 1053.67 51.15 1053.67 53.25C1053.67 54.35 1053.47 55.45 1053.07 56.55L1044.67 79.95C1043.77 82.65 1042.67 84.55 1041.37 85.65C1040.17 86.75 1038.32 87.3 1035.82 87.3C1033.22 87.3 1031.07 86.4 1029.37 84.6C1027.77 82.7 1025.92 79.5 1023.82 75C1021.42 70.3 1019.47 67.2 1017.97 65.7C1016.47 64.2 1014.27 63.45 1011.37 63.45C1007.27 63.45 1003.32 66 999.523 71.1C995.723 76.1 992.273 83.65 989.173 93.75C986.573 102.25 985.273 109.35 985.273 115.05C985.273 120.05 986.223 123.8 988.123 126.3C990.023 128.7 992.573 129.9 995.773 129.9C1000.47 129.9 1004.32 128.85 1007.32 126.75C1010.42 124.65 1013.57 121.8 1016.77 118.2C1018.77 116 1020.37 114.4 1021.57 113.4C1022.87 112.3 1024.22 111.75 1025.62 111.75C1027.42 111.75 1029.32 112.65 1031.32 114.45C1033.32 116.25 1034.27 118.05 1034.17 119.85C1034.27 122.05 1032.47 125.45 1028.77 130.05C1025.17 134.65 1020.12 138.8 1013.62 142.5C1007.22 146.1 999.923 147.9 991.723 147.9Z" fill="#FB6345"/>
<path d="M1138.93 46.5C1143.13 46.5 1146.63 47.85 1149.43 50.55C1152.23 53.25 1153.63 56.9 1153.63 61.5C1153.63 66.7 1152.08 70.9 1148.98 74.1C1145.88 77.3 1142.18 78.9 1137.88 78.9C1135.08 78.9 1132.68 78.4 1130.68 77.4C1128.68 76.4 1126.78 74.8 1124.98 72.6L1112.08 83.4L1126.63 126.45C1127.53 128.95 1128.48 130.95 1129.48 132.45C1130.58 133.95 1131.88 135.45 1133.38 136.95C1134.48 138.05 1135.23 138.95 1135.63 139.65C1136.13 140.25 1136.38 141 1136.38 141.9C1136.38 143.5 1135.63 144.75 1134.13 145.65C1132.73 146.55 1130.23 147 1126.63 147H1106.98C1102.08 147 1098.43 145.95 1096.03 143.85C1093.73 141.65 1091.83 138.05 1090.33 133.05L1082.83 107.85L1078.48 111.45L1073.53 129.3C1073.13 130.6 1072.93 131.85 1072.93 133.05C1072.93 134.25 1073.08 135.25 1073.38 136.05C1073.78 136.85 1074.33 137.7 1075.03 138.6C1075.93 139.9 1076.38 140.95 1076.38 141.75C1076.38 141.95 1076.28 142.45 1076.08 143.25C1075.68 144.65 1074.78 145.65 1073.38 146.25C1071.98 146.75 1069.88 147 1067.08 147H1031.83C1029.73 147 1028.13 146.65 1027.03 145.95C1025.83 145.25 1025.23 144.3 1025.23 143.1C1025.23 142.5 1025.38 141.85 1025.68 141.15C1026.08 140.05 1026.73 139.2 1027.63 138.6C1028.53 138 1029.08 137.65 1029.28 137.55C1030.88 136.55 1032.18 135.55 1033.18 134.55C1034.18 133.45 1035.03 131.7 1035.73 129.3L1054.03 64.65C1054.43 63.35 1054.63 62.1 1054.63 60.9C1054.63 59.8 1054.43 58.9 1054.03 58.2C1053.73 57.4 1053.28 56.5 1052.68 55.5C1051.78 54.2 1051.33 53.15 1051.33 52.35C1051.33 52.05 1051.43 51.5 1051.63 50.7C1052.03 49.4 1052.88 48.5 1054.18 48C1055.58 47.4 1057.68 47.1 1060.48 47.1H1095.73C1097.83 47.1 1099.43 47.45 1100.53 48.15C1101.73 48.75 1102.33 49.65 1102.33 50.85C1102.33 51.35 1102.18 52 1101.88 52.8C1101.58 53.5 1101.13 54.15 1100.53 54.75C1100.03 55.25 1099.53 55.65 1099.03 55.95C1098.63 56.15 1098.33 56.35 1098.13 56.55C1096.53 57.45 1095.23 58.45 1094.23 59.55C1093.23 60.65 1092.38 62.35 1091.68 64.65L1085.38 87L1125.13 52.65C1127.73 50.45 1130.08 48.9 1132.18 48C1134.28 47 1136.53 46.5 1138.93 46.5Z" fill="#E196F7"/>
<path d="M84.6384 57.5774C82.353 58.4547 80.4244 58.6487 78.8527 58.1595C77.3021 57.6621 76.2507 56.694 75.6983 55.255C75.6089 55.0222 75.5521 54.8741 75.5277 54.8106C75.5164 54.7179 75.5067 54.6609 75.4985 54.6397L78.7045 53.4091L78.8141 53.6948C79.1634 54.6047 79.7977 55.1503 80.7171 55.3315C81.6283 55.4916 82.6553 55.3523 83.798 54.9137C84.8137 54.5238 85.587 54.0084 86.118 53.3676C86.6701 52.7186 86.8121 52.045 86.544 51.3466C86.3328 50.7965 85.9718 50.4252 85.4609 50.2328C84.9419 50.0193 84.3708 49.9229 83.7475 49.9437C83.1161 49.9432 82.2291 50.0045 81.0866 50.1274C79.6951 50.2974 78.5364 50.378 77.6104 50.3693C76.6844 50.3605 75.8139 50.1484 74.9989 49.7329C74.205 49.3092 73.605 48.5684 73.1988 47.5103C72.614 45.9867 72.7834 44.5621 73.7069 43.2364C74.6224 41.8895 76.117 40.818 78.1908 40.022C79.4817 39.5265 80.6804 39.297 81.787 39.3335C82.9066 39.3408 83.8544 39.5961 84.6303 40.0994C85.4274 40.5947 85.9924 41.2761 86.3255 42.1437L86.5374 42.7907L83.3315 44.0214L83.2462 43.7992C82.9782 43.1009 82.4772 42.6498 81.7434 42.4458C81.0227 42.2127 80.0803 42.3195 78.9165 42.7662C77.7949 43.1967 77.0468 43.7146 76.6721 44.3197C76.3105 44.8956 76.2312 45.448 76.4343 45.977C76.6861 46.633 77.1903 46.9979 77.947 47.0716C78.7037 47.1453 79.8307 47.0769 81.328 46.8663C82.783 46.672 83.9987 46.5817 84.9751 46.5953C85.9434 46.5878 86.8684 46.8154 87.7501 47.2782C88.6238 47.7198 89.2799 48.5119 89.7185 49.6546C90.4009 51.4322 90.2591 52.9919 89.2932 54.3339C88.3484 55.6677 86.7968 56.7489 84.6384 57.5774ZM98.9811 58.263C97.9443 58.661 97.0889 58.8679 96.4152 58.8838L95.5866 56.7253L96.9833 56.1892C98.9089 55.45 99.7774 53.8541 99.5886 51.4016L86.7042 37.191L90.1323 35.8751L96.3866 42.8704C97.2241 43.7872 98.4014 45.2412 99.9184 47.2324L100.077 47.1715C99.8573 44.828 99.7064 42.98 99.6243 41.6276L99.0835 32.4391L102.353 31.1841L102.91 49.1433C102.96 51.5518 102.729 53.5102 102.215 55.0185C101.71 56.5479 100.632 57.6294 98.9811 58.263ZM117.021 45.1467C114.905 45.959 113.004 45.8756 111.317 44.8965C109.622 43.8962 108.206 41.9147 107.068 38.9521C105.947 36.0319 105.682 33.633 106.272 31.7554C106.855 29.8566 108.13 28.5295 110.098 27.7741C112.404 26.8887 114.379 27.0047 116.022 28.1222L116.212 28.049L113.081 19.8914L116.35 18.6364L125.16 41.5857L122.557 42.5848L121.387 40.4847L121.164 40.57C120.96 41.6196 120.489 42.5412 119.749 43.3348C119.031 44.1204 118.122 44.7244 117.021 45.1467ZM116.882 42.0319C118.3 41.4876 119.15 40.6029 119.432 39.3777C119.714 38.1524 119.49 36.5876 118.759 34.6831L118.661 34.4291C117.151 30.4932 115.03 29.0491 112.3 30.097C110.798 30.6737 109.904 31.5389 109.618 32.6925C109.325 33.825 109.584 35.4493 110.396 37.5654L110.506 37.851C111.302 39.9248 112.188 41.2843 113.164 41.9293C114.14 42.5744 115.379 42.6086 116.882 42.0319ZM123.726 21.4138L122.297 21.9621L120.872 18.2483L124.427 16.8836L125.731 20.28L125.856 25.731L124.015 26.4377L123.726 21.4138ZM142.449 35.3859C140.164 36.2632 138.235 36.4572 136.664 35.968C135.113 35.4706 134.062 34.5024 133.509 33.0635C133.42 32.8307 133.363 32.6826 133.339 32.6191C133.327 32.5263 133.318 32.4694 133.309 32.4482L136.515 31.2176L136.625 31.5033C136.974 32.4132 137.609 32.9588 138.528 33.14C139.439 33.3001 140.466 33.1608 141.609 32.7222C142.625 32.3323 143.398 31.8169 143.929 31.1761C144.481 30.5271 144.623 29.8535 144.355 29.1551C144.144 28.6049 143.783 28.2337 143.272 28.0413C142.753 27.8278 142.182 27.7314 141.558 27.7521C140.927 27.7517 140.04 27.813 138.898 27.9359C137.506 28.1059 136.347 28.1865 135.421 28.1777C134.495 28.169 133.625 27.9569 132.81 27.5414C132.016 27.1177 131.416 26.3769 131.01 25.3188C130.425 23.7952 130.594 22.3706 131.518 21.0449C132.433 19.698 133.928 18.6265 136.002 17.8305C137.293 17.335 138.491 17.1055 139.598 17.142C140.717 17.1493 141.665 17.4046 142.441 17.9079C143.238 18.4032 143.803 19.0846 144.136 19.9522L144.348 20.5992L141.142 21.8299L141.057 21.6077C140.789 20.9093 140.288 20.4582 139.554 20.2543C138.834 20.0211 137.891 20.1279 136.727 20.5747C135.606 21.0052 134.858 21.5231 134.483 22.1282C134.121 22.704 134.042 23.2565 134.245 23.7855C134.497 24.4415 135.001 24.8064 135.758 24.8801C136.515 24.9538 137.642 24.8854 139.139 24.6748C140.594 24.4805 141.81 24.3901 142.786 24.4038C143.754 24.3963 144.679 24.6239 145.561 25.0867C146.435 25.5283 147.091 26.3204 147.529 27.4631C148.212 29.2407 148.07 30.8004 147.104 32.1423C146.159 33.4762 144.608 34.5574 142.449 35.3859Z" fill="#FD00DC"/>
</svg>
